<svg xmlns="http://www.w3.org/2000/svg" fill="none" viewBox="0 0 30 30" height="30" width="30" id="Shopping-Cart-2--Streamline-Core"><desc>Shopping Cart 2 Streamline Icon: https://streamlinehq.com</desc><g id="shopping-cart-2--shopping-cart-checkout"><path id="Union" fill="#000000" fill-rule="evenodd" d="M1.6071428571428572 3.2142857142857144h2.991428571428571l0.8121428571428572 3.0857142857142854a1.6457142857142857 1.6457142857142857 0 0 0 0.02142857142857143 0.07285714285714286l2.0742857142857143 10.382142857142856a1.622142857142857 1.622142857142857 0 0 0 0.025714285714285714 0.16714285714285715l0.8999999999999999 4.5 0 0.0064285714285714285a2.6785714285714284 2.6785714285714284 0 0 0 2.625 2.142857142857143h13.049999999999999a1.6071428571428572 1.6071428571428572 0 0 0 0 -3.2142857142857144H11.496428571428572l-0.5357142857142857 -2.6785714285714284H25.928571428571427l0.02142857142857143 0h0.002142857142857143c0.07500000000000001 0 0.2892857142857143 0.0064285714285714285 0.48642857142857143 -0.025714285714285714a2.164285714285714 2.164285714285714 0 0 0 1.6199999999999999 -1.262142857142857c0.11571428571428571 -0.2657142857142857 0.17357142857142857 -0.6021428571428572 0.19285714285714284 -0.7135714285714286l0.0064285714285714285 -0.03 1.695 -8.275714285714285 0.004285714285714286 -0.02142857142857143A2.1449999999999996 2.1449999999999996 0 0 0 27.857142857142858 4.821428571428571l-0.004285714285714286 0 -19.510714285714286 0L7.628571428571428 2.089285714285714A2.6785714285714284 2.6785714285714284 0 0 0 5.014285714285714 0H1.6071428571428572a1.6071428571428572 1.6071428571428572 0 1 0 0 3.2142857142857144Zm23.314285714285717 24.214285714285715a2.462142857142857 2.462142857142857 0 1 0 -4.924285714285714 0 2.462142857142857 2.462142857142857 0 0 0 4.922142857142857 0Zm-13.178571428571429 -2.4599999999999995a2.462142857142857 2.462142857142857 0 1 1 0 4.922142857142857 2.462142857142857 2.462142857142857 0 0 1 0 -4.922142857142857Z" clip-rule="evenodd" stroke-width="1"></path></g></svg>